# Tiled2Unity generated file. Do not modify by hand.
# Wavefront file for 'Casa_loss_mesh_0001.obj'

# Vertices (Count = 440)
v -656 -496 0
v -672 -496 0
v -672 -480 0
v -656 -480 0
v -640 -496 0
v -656 -496 0
v -656 -480 0
v -640 -480 0
v -624 -496 0
v -640 -496 0
v -640 -480 0
v -624 -480 0
v -608 -496 0
v -624 -496 0
v -624 -480 0
v -608 -480 0
v -592 -496 0
v -608 -496 0
v -608 -480 0
v -592 -480 0
v -576 -496 0
v -592 -496 0
v -592 -480 0
v -576 -480 0
v -560 -496 0
v -576 -496 0
v -576 -480 0
v -560 -480 0
v -544 -496 0
v -560 -496 0
v -560 -480 0
v -544 -480 0
v -528 -496 0
v -544 -496 0
v -544 -480 0
v -528 -480 0
v -512 -496 0
v -528 -496 0
v -528 -480 0
v -512 -480 0
v -496 -496 0
v -512 -496 0
v -512 -480 0
v -496 -480 0
v -656 -512 0
v -672 -512 0
v -672 -496 0
v -656 -496 0
v -640 -512 0
v -656 -512 0
v -656 -496 0
v -640 -496 0
v -624 -512 0
v -640 -512 0
v -640 -496 0
v -624 -496 0
v -608 -512 0
v -624 -512 0
v -624 -496 0
v -608 -496 0
v -592 -512 0
v -608 -512 0
v -608 -496 0
v -592 -496 0
v -576 -512 0
v -592 -512 0
v -592 -496 0
v -576 -496 0
v -560 -512 0
v -576 -512 0
v -576 -496 0
v -560 -496 0
v -544 -512 0
v -560 -512 0
v -560 -496 0
v -544 -496 0
v -528 -512 0
v -544 -512 0
v -544 -496 0
v -528 -496 0
v -512 -512 0
v -528 -512 0
v -528 -496 0
v -512 -496 0
v -496 -512 0
v -512 -512 0
v -512 -496 0
v -496 -496 0
v -656 -528 0
v -672 -528 0
v -672 -512 0
v -656 -512 0
v -640 -528 0
v -656 -528 0
v -656 -512 0
v -640 -512 0
v -624 -528 0
v -640 -528 0
v -640 -512 0
v -624 -512 0
v -608 -528 0
v -624 -528 0
v -624 -512 0
v -608 -512 0
v -592 -528 0
v -608 -528 0
v -608 -512 0
v -592 -512 0
v -576 -528 0
v -592 -528 0
v -592 -512 0
v -576 -512 0
v -560 -528 0
v -576 -528 0
v -576 -512 0
v -560 -512 0
v -544 -528 0
v -560 -528 0
v -560 -512 0
v -544 -512 0
v -528 -528 0
v -544 -528 0
v -544 -512 0
v -528 -512 0
v -512 -528 0
v -528 -528 0
v -528 -512 0
v -512 -512 0
v -496 -528 0
v -512 -528 0
v -512 -512 0
v -496 -512 0
v -656 -544 0
v -672 -544 0
v -672 -528 0
v -656 -528 0
v -640 -544 0
v -656 -544 0
v -656 -528 0
v -640 -528 0
v -624 -544 0
v -640 -544 0
v -640 -528 0
v -624 -528 0
v -608 -544 0
v -624 -544 0
v -624 -528 0
v -608 -528 0
v -592 -544 0
v -608 -544 0
v -608 -528 0
v -592 -528 0
v -576 -544 0
v -592 -544 0
v -592 -528 0
v -576 -528 0
v -560 -544 0
v -576 -544 0
v -576 -528 0
v -560 -528 0
v -544 -544 0
v -560 -544 0
v -560 -528 0
v -544 -528 0
v -528 -544 0
v -544 -544 0
v -544 -528 0
v -528 -528 0
v -512 -544 0
v -528 -544 0
v -528 -528 0
v -512 -528 0
v -496 -544 0
v -512 -544 0
v -512 -528 0
v -496 -528 0
v -656 -560 0
v -672 -560 0
v -672 -544 0
v -656 -544 0
v -640 -560 0
v -656 -560 0
v -656 -544 0
v -640 -544 0
v -624 -560 0
v -640 -560 0
v -640 -544 0
v -624 -544 0
v -608 -560 0
v -624 -560 0
v -624 -544 0
v -608 -544 0
v -592 -560 0
v -608 -560 0
v -608 -544 0
v -592 -544 0
v -576 -560 0
v -592 -560 0
v -592 -544 0
v -576 -544 0
v -560 -560 0
v -576 -560 0
v -576 -544 0
v -560 -544 0
v -544 -560 0
v -560 -560 0
v -560 -544 0
v -544 -544 0
v -528 -560 0
v -544 -560 0
v -544 -544 0
v -528 -544 0
v -512 -560 0
v -528 -560 0
v -528 -544 0
v -512 -544 0
v -496 -560 0
v -512 -560 0
v -512 -544 0
v -496 -544 0
v -656 -576 0
v -672 -576 0
v -672 -560 0
v -656 -560 0
v -640 -576 0
v -656 -576 0
v -656 -560 0
v -640 -560 0
v -624 -576 0
v -640 -576 0
v -640 -560 0
v -624 -560 0
v -608 -576 0
v -624 -576 0
v -624 -560 0
v -608 -560 0
v -592 -576 0
v -608 -576 0
v -608 -560 0
v -592 -560 0
v -576 -576 0
v -592 -576 0
v -592 -560 0
v -576 -560 0
v -560 -576 0
v -576 -576 0
v -576 -560 0
v -560 -560 0
v -544 -576 0
v -560 -576 0
v -560 -560 0
v -544 -560 0
v -528 -576 0
v -544 -576 0
v -544 -560 0
v -528 -560 0
v -512 -576 0
v -528 -576 0
v -528 -560 0
v -512 -560 0
v -496 -576 0
v -512 -576 0
v -512 -560 0
v -496 -560 0
v -656 -592 0
v -672 -592 0
v -672 -576 0
v -656 -576 0
v -640 -592 0
v -656 -592 0
v -656 -576 0
v -640 -576 0
v -624 -592 0
v -640 -592 0
v -640 -576 0
v -624 -576 0
v -608 -592 0
v -624 -592 0
v -624 -576 0
v -608 -576 0
v -592 -592 0
v -608 -592 0
v -608 -576 0
v -592 -576 0
v -576 -592 0
v -592 -592 0
v -592 -576 0
v -576 -576 0
v -560 -592 0
v -576 -592 0
v -576 -576 0
v -560 -576 0
v -544 -592 0
v -560 -592 0
v -560 -576 0
v -544 -576 0
v -528 -592 0
v -544 -592 0
v -544 -576 0
v -528 -576 0
v -512 -592 0
v -528 -592 0
v -528 -576 0
v -512 -576 0
v -496 -592 0
v -512 -592 0
v -512 -576 0
v -496 -576 0
v -656 -608 0
v -672 -608 0
v -672 -592 0
v -656 -592 0
v -640 -608 0
v -656 -608 0
v -656 -592 0
v -640 -592 0
v -624 -608 0
v -640 -608 0
v -640 -592 0
v -624 -592 0
v -608 -608 0
v -624 -608 0
v -624 -592 0
v -608 -592 0
v -592 -608 0
v -608 -608 0
v -608 -592 0
v -592 -592 0
v -576 -608 0
v -592 -608 0
v -592 -592 0
v -576 -592 0
v -560 -608 0
v -576 -608 0
v -576 -592 0
v -560 -592 0
v -544 -608 0
v -560 -608 0
v -560 -592 0
v -544 -592 0
v -528 -608 0
v -544 -608 0
v -544 -592 0
v -528 -592 0
v -512 -608 0
v -528 -608 0
v -528 -592 0
v -512 -592 0
v -496 -608 0
v -512 -608 0
v -512 -592 0
v -496 -592 0
v -656 -624 0
v -672 -624 0
v -672 -608 0
v -656 -608 0
v -640 -624 0
v -656 -624 0
v -656 -608 0
v -640 -608 0
v -624 -624 0
v -640 -624 0
v -640 -608 0
v -624 -608 0
v -608 -624 0
v -624 -624 0
v -624 -608 0
v -608 -608 0
v -592 -624 0
v -608 -624 0
v -608 -608 0
v -592 -608 0
v -576 -624 0
v -592 -624 0
v -592 -608 0
v -576 -608 0
v -560 -624 0
v -576 -624 0
v -576 -608 0
v -560 -608 0
v -544 -624 0
v -560 -624 0
v -560 -608 0
v -544 -608 0
v -528 -624 0
v -544 -624 0
v -544 -608 0
v -528 -608 0
v -512 -624 0
v -528 -624 0
v -528 -608 0
v -512 -608 0
v -496 -624 0
v -512 -624 0
v -512 -608 0
v -496 -608 0
v -656 -640 0
v -672 -640 0
v -672 -624 0
v -656 -624 0
v -640 -640 0
v -656 -640 0
v -656 -624 0
v -640 -624 0
v -624 -640 0
v -640 -640 0
v -640 -624 0
v -624 -624 0
v -608 -640 0
v -624 -640 0
v -624 -624 0
v -608 -624 0
v -592 -640 0
v -608 -640 0
v -608 -624 0
v -592 -624 0
v -576 -640 0
v -592 -640 0
v -592 -624 0
v -576 -624 0
v -560 -640 0
v -576 -640 0
v -576 -624 0
v -560 -624 0
v -544 -640 0
v -560 -640 0
v -560 -624 0
v -544 -624 0
v -528 -640 0
v -544 -640 0
v -544 -624 0
v -528 -624 0
v -512 -640 0
v -528 -640 0
v -528 -624 0
v -512 -624 0
v -496 -640 0
v -512 -640 0
v -512 -624 0
v -496 -624 0

# Texture cooridinates (Count = 48)
vt 0.3161157 0.2585551
vt 0.3326446 0.2585551
vt 0.3326446 0.2889734
vt 0.3161157 0.2889734
vt 0.1229339 0.03231937
vt 0.1394628 0.03231937
vt 0.1394628 0.06273764
vt 0.1229339 0.06273764
vt 0.1580579 0.904943
vt 0.1745868 0.904943
vt 0.1745868 0.9353612
vt 0.1580579 0.9353612
vt 0.2107438 0.6463878
vt 0.2272727 0.6463878
vt 0.2272727 0.6768061
vt 0.2107438 0.6768061
vt 0.1931818 0.6463878
vt 0.2097107 0.6463878
vt 0.2097107 0.6768061
vt 0.1931818 0.6768061
vt 0.1756198 0.6463878
vt 0.1921488 0.6463878
vt 0.1921488 0.6768061
vt 0.1756198 0.6768061
vt 0.2107438 0.6140684
vt 0.2272727 0.6140684
vt 0.2272727 0.6444867
vt 0.2107438 0.6444867
vt 0.1931818 0.6140684
vt 0.2097107 0.6140684
vt 0.2097107 0.6444867
vt 0.1931818 0.6444867
vt 0.1756198 0.6140684
vt 0.1921488 0.6140684
vt 0.1921488 0.6444867
vt 0.1756198 0.6444867
vt 0.2107438 0.5817491
vt 0.2272727 0.5817491
vt 0.2272727 0.6121673
vt 0.2107438 0.6121673
vt 0.1931818 0.5817491
vt 0.2097107 0.5817491
vt 0.2097107 0.6121673
vt 0.1931818 0.6121673
vt 0.1756198 0.5817491
vt 0.1921488 0.5817491
vt 0.1921488 0.6121673
vt 0.1756198 0.6121673

# Normal
vn 0 0 -1

# Mesh description
g Casa_loss_mesh_0001

# Faces
f 1/1/1 2/2/1 3/3/1 4/4/1
f 5/1/1 6/2/1 7/3/1 8/4/1
f 9/1/1 10/2/1 11/3/1 12/4/1
f 13/1/1 14/2/1 15/3/1 16/4/1
f 17/1/1 18/2/1 19/3/1 20/4/1
f 21/1/1 22/2/1 23/3/1 24/4/1
f 25/1/1 26/2/1 27/3/1 28/4/1
f 29/1/1 30/2/1 31/3/1 32/4/1
f 33/1/1 34/2/1 35/3/1 36/4/1
f 37/1/1 38/2/1 39/3/1 40/4/1
f 41/1/1 42/2/1 43/3/1 44/4/1
f 45/1/1 46/2/1 47/3/1 48/4/1
f 49/5/1 50/6/1 51/7/1 52/8/1
f 53/5/1 54/6/1 55/7/1 56/8/1
f 57/5/1 58/6/1 59/7/1 60/8/1
f 61/5/1 62/6/1 63/7/1 64/8/1
f 65/5/1 66/6/1 67/7/1 68/8/1
f 69/5/1 70/6/1 71/7/1 72/8/1
f 73/5/1 74/6/1 75/7/1 76/8/1
f 77/5/1 78/6/1 79/7/1 80/8/1
f 81/5/1 82/6/1 83/7/1 84/8/1
f 85/1/1 86/2/1 87/3/1 88/4/1
f 89/1/1 90/2/1 91/3/1 92/4/1
f 93/5/1 94/6/1 95/7/1 96/8/1
f 97/5/1 98/6/1 99/7/1 100/8/1
f 101/5/1 102/6/1 103/7/1 104/8/1
f 105/5/1 106/6/1 107/7/1 108/8/1
f 109/5/1 110/6/1 111/7/1 112/8/1
f 113/5/1 114/6/1 115/7/1 116/8/1
f 117/5/1 118/6/1 119/7/1 120/8/1
f 121/5/1 122/6/1 123/7/1 124/8/1
f 125/5/1 126/6/1 127/7/1 128/8/1
f 129/1/1 130/2/1 131/3/1 132/4/1
f 133/1/1 134/2/1 135/3/1 136/4/1
f 137/5/1 138/6/1 139/7/1 140/8/1
f 141/5/1 142/6/1 143/7/1 144/8/1
f 145/5/1 146/6/1 147/7/1 148/8/1
f 149/5/1 150/6/1 151/7/1 152/8/1
f 153/5/1 154/6/1 155/7/1 156/8/1
f 157/5/1 158/6/1 159/7/1 160/8/1
f 161/5/1 162/6/1 163/7/1 164/8/1
f 165/5/1 166/6/1 167/7/1 168/8/1
f 169/5/1 170/6/1 171/7/1 172/8/1
f 173/1/1 174/2/1 175/3/1 176/4/1
f 177/1/1 178/2/1 179/3/1 180/4/1
f 181/9/1 182/10/1 183/11/1 184/12/1
f 185/9/1 186/10/1 187/11/1 188/12/1
f 189/9/1 190/10/1 191/11/1 192/12/1
f 193/9/1 194/10/1 195/11/1 196/12/1
f 197/9/1 198/10/1 199/11/1 200/12/1
f 201/9/1 202/10/1 203/11/1 204/12/1
f 205/9/1 206/10/1 207/11/1 208/12/1
f 209/9/1 210/10/1 211/11/1 212/12/1
f 213/9/1 214/10/1 215/11/1 216/12/1
f 217/1/1 218/2/1 219/3/1 220/4/1
f 221/1/1 222/2/1 223/3/1 224/4/1
f 225/9/1 226/10/1 227/11/1 228/12/1
f 229/9/1 230/10/1 231/11/1 232/12/1
f 233/9/1 234/10/1 235/11/1 236/12/1
f 237/13/1 238/14/1 239/15/1 240/16/1
f 241/17/1 242/18/1 243/19/1 244/20/1
f 245/21/1 246/22/1 247/23/1 248/24/1
f 249/9/1 250/10/1 251/11/1 252/12/1
f 253/9/1 254/10/1 255/11/1 256/12/1
f 257/9/1 258/10/1 259/11/1 260/12/1
f 261/1/1 262/2/1 263/3/1 264/4/1
f 265/1/1 266/2/1 267/3/1 268/4/1
f 269/9/1 270/10/1 271/11/1 272/12/1
f 273/9/1 274/10/1 275/11/1 276/12/1
f 277/9/1 278/10/1 279/11/1 280/12/1
f 281/25/1 282/26/1 283/27/1 284/28/1
f 285/29/1 286/30/1 287/31/1 288/32/1
f 289/33/1 290/34/1 291/35/1 292/36/1
f 293/9/1 294/10/1 295/11/1 296/12/1
f 297/9/1 298/10/1 299/11/1 300/12/1
f 301/9/1 302/10/1 303/11/1 304/12/1
f 305/1/1 306/2/1 307/3/1 308/4/1
f 309/1/1 310/2/1 311/3/1 312/4/1
f 313/9/1 314/10/1 315/11/1 316/12/1
f 317/9/1 318/10/1 319/11/1 320/12/1
f 321/9/1 322/10/1 323/11/1 324/12/1
f 325/37/1 326/38/1 327/39/1 328/40/1
f 329/41/1 330/42/1 331/43/1 332/44/1
f 333/45/1 334/46/1 335/47/1 336/48/1
f 337/9/1 338/10/1 339/11/1 340/12/1
f 341/9/1 342/10/1 343/11/1 344/12/1
f 345/9/1 346/10/1 347/11/1 348/12/1
f 349/1/1 350/2/1 351/3/1 352/4/1
f 353/1/1 354/2/1 355/3/1 356/4/1
f 357/9/1 358/10/1 359/11/1 360/12/1
f 361/9/1 362/10/1 363/11/1 364/12/1
f 365/9/1 366/10/1 367/11/1 368/12/1
f 369/9/1 370/10/1 371/11/1 372/12/1
f 373/9/1 374/10/1 375/11/1 376/12/1
f 377/9/1 378/10/1 379/11/1 380/12/1
f 381/9/1 382/10/1 383/11/1 384/12/1
f 385/9/1 386/10/1 387/11/1 388/12/1
f 389/9/1 390/10/1 391/11/1 392/12/1
f 393/1/1 394/2/1 395/3/1 396/4/1
f 397/1/1 398/2/1 399/3/1 400/4/1
f 401/9/1 402/10/1 403/11/1 404/12/1
f 405/9/1 406/10/1 407/11/1 408/12/1
f 409/9/1 410/10/1 411/11/1 412/12/1
f 413/9/1 414/10/1 415/11/1 416/12/1
f 417/9/1 418/10/1 419/11/1 420/12/1
f 421/9/1 422/10/1 423/11/1 424/12/1
f 425/9/1 426/10/1 427/11/1 428/12/1
f 429/9/1 430/10/1 431/11/1 432/12/1
f 433/9/1 434/10/1 435/11/1 436/12/1
f 437/1/1 438/2/1 439/3/1 440/4/1

